<svg id="Calque_1" data-name="Calque 1" xmlns="http://www.w3.org/2000/svg" xmlns:xlink="http://www.w3.org/1999/xlink" viewBox="0 0 360.72 86.22"><defs><style>.cls-1{fill:none;}.cls-2{clip-path:url(#clip-path);}.cls-3{fill:#ffd500;}.cls-4{fill:#f39200;}.cls-5{fill:#75b02c;}.cls-6{fill:#00509e;}.cls-7{fill:#1d1d1b;}</style><clipPath id="clip-path" transform="translate(-11.5 -7.86)"><rect class="cls-1" x="11.5" y="7.86" width="360.72" height="86.22"/></clipPath></defs><g class="cls-2"><path class="cls-3" d="M50.1,56c-5.59-5.59-10.58-6.38-15-7.08-3.89-.61-7.24-1.14-11.29-5.19a15.94,15.94,0,0,1-4.92-9.6,3.36,3.36,0,0,0-6.61,1.18,22.7,22.7,0,0,0,6.78,13.16c5.59,5.59,10.58,6.38,15,7.08,3.89.62,7.25,1.15,11.29,5.2a15.92,15.92,0,0,1,4.79,8.9,28.91,28.91,0,0,1,3.08-9.93A25.65,25.65,0,0,0,50.1,56" transform="translate(-11.5 -7.86)"/><path class="cls-3" d="M74,91.35a3.37,3.37,0,0,0-2.68-3.93,15.83,15.83,0,0,1-9.17-4.83c-.48-.49-.91-1-1.3-1.43a25.12,25.12,0,0,1-3.67,5.94l.22.23A22.67,22.67,0,0,0,70,94,3.37,3.37,0,0,0,74,91.35" transform="translate(-11.5 -7.86)"/><path class="cls-4" d="M52.36,14.69A22.65,22.65,0,0,0,39.7,8a3.36,3.36,0,1,0-1.25,6.6,15.74,15.74,0,0,1,9.16,4.84,18.64,18.64,0,0,1,1.31,1.42,24.88,24.88,0,0,1,3.67-5.93l-.23-.24" transform="translate(-11.5 -7.86)"/><path class="cls-4" d="M97.84,66.26a22.76,22.76,0,0,0-6.78-13.17c-5.59-5.59-10.59-6.38-15-7.08-3.88-.61-7.24-1.15-11.29-5.19A15.83,15.83,0,0,1,60,31.91a29.07,29.07,0,0,1-3.08,9.93A26.19,26.19,0,0,0,60,45.56c5.59,5.59,10.58,6.38,15,7.08,3.88.62,7.24,1.15,11.29,5.2a16,16,0,0,1,4.92,9.59,3.36,3.36,0,0,0,6.61-1.17" transform="translate(-11.5 -7.86)"/><path class="cls-5" d="M60,55.91c-5.59,5.58-6.38,10.57-7.08,15-.62,3.88-1.15,7.23-5.2,11.28a16,16,0,0,1-9.6,4.92A3.34,3.34,0,0,0,35.44,91a3.3,3.3,0,0,0,.93,1.78,3.35,3.35,0,0,0,3,.94A22.76,22.76,0,0,0,52.5,86.92c5.59-5.59,6.38-10.58,7.08-15,.62-3.89,1.15-7.24,5.2-11.29a15.89,15.89,0,0,1,8.91-4.78,29.18,29.18,0,0,1-9.94-3.08A25.65,25.65,0,0,0,60,55.91" transform="translate(-11.5 -7.86)"/><path class="cls-5" d="M91.19,48.52a22.61,22.61,0,0,0,6.69-12.67,3.35,3.35,0,1,0-6.59-1.24,15.88,15.88,0,0,1-4.84,9.16c-.49.48-1,.91-1.43,1.3A25.12,25.12,0,0,1,91,48.74l.23-.22" transform="translate(-11.5 -7.86)"/><path class="cls-6" d="M18.25,53.23a22.59,22.59,0,0,0-6.69,12.66,3.35,3.35,0,1,0,6.59,1.25A15.84,15.84,0,0,1,23,58c.44-.44.87-.83,1.3-1.19A25.68,25.68,0,0,1,18.46,53l-.21.2" transform="translate(-11.5 -7.86)"/><path class="cls-6" d="M45.45,48.89a26.77,26.77,0,0,0,3.82-3.19c5.59-5.59,6.38-10.58,7.08-15,.62-3.88,1.15-7.24,5.2-11.28a15.94,15.94,0,0,1,9.6-4.92A3.36,3.36,0,1,0,70,7.91,22.81,22.81,0,0,0,56.8,14.69c-5.59,5.59-6.38,10.58-7.08,15-.62,3.88-1.15,7.24-5.2,11.28A16.1,16.1,0,0,1,35,45.86l.4.07a30.58,30.58,0,0,1,10.09,3" transform="translate(-11.5 -7.86)"/><path class="cls-7" d="M135.79,61.79a11,11,0,0,0,4.34-4.43,14.13,14.13,0,0,0,0-12.67,11,11,0,0,0-4.34-4.44,14.69,14.69,0,0,0-13.45,0A11,11,0,0,0,118,44.69a14.13,14.13,0,0,0,0,12.67,11,11,0,0,0,4.32,4.43,14.69,14.69,0,0,0,13.45,0m-15.6,3.4a14.69,14.69,0,0,1-5.89-5.75,17.35,17.35,0,0,1,0-16.84,14.6,14.6,0,0,1,5.89-5.74,20,20,0,0,1,17.74,0,14.82,14.82,0,0,1,5.9,5.77,17.19,17.19,0,0,1,0,16.79,15,15,0,0,1-5.9,5.77,20,20,0,0,1-17.74,0" transform="translate(-11.5 -7.86)"/><path class="cls-7" d="M154,66.23a1.92,1.92,0,0,1-.63-1.45V37.31a2,2,0,0,1,.63-1.47,2.13,2.13,0,0,1,1.55-.61H174.9a2.13,2.13,0,0,1,1.48.56,1.83,1.83,0,0,1,.6,1.38,1.75,1.75,0,0,1-.6,1.36,2.16,2.16,0,0,1-1.48.54H157.76v10h15.4a2.09,2.09,0,0,1,1.48.57,1.83,1.83,0,0,1,.6,1.38,1.76,1.76,0,0,1-.6,1.36,2.16,2.16,0,0,1-1.48.54h-15.4V63H174.9a2.13,2.13,0,0,1,1.48.56,1.83,1.83,0,0,1,.6,1.38,1.75,1.75,0,0,1-.6,1.36,2.16,2.16,0,0,1-1.48.54H155.54a2.19,2.19,0,0,1-1.55-.58" transform="translate(-11.5 -7.86)"/><path class="cls-7" d="M191,55h13L197.5,40.25Zm-8.47,11.49A1.91,1.91,0,0,1,181.9,65a2.2,2.2,0,0,1,.25-.9l12.31-27.24a3.49,3.49,0,0,1,1.09-1.34,2.8,2.8,0,0,1,1.71-.52h.48a2.85,2.85,0,0,1,1.72.52,3.59,3.59,0,0,1,1.09,1.34L212.86,64.1a2.32,2.32,0,0,1,.24.9,1.94,1.94,0,0,1-.6,1.45,2.18,2.18,0,0,1-1.57.59,2.26,2.26,0,0,1-1.23-.34,2.12,2.12,0,0,1-.85-.93l-3.14-7.06H189.29l-3.14,7.06a2.16,2.16,0,0,1-.84.93,2.28,2.28,0,0,1-1.23.34,2.15,2.15,0,0,1-1.57-.59" transform="translate(-11.5 -7.86)"/><path class="cls-7" d="M225.73,65.3a14.71,14.71,0,0,1-6-5.66A16.56,16.56,0,0,1,217.5,51a16.56,16.56,0,0,1,2.19-8.62,14.78,14.78,0,0,1,6-5.66,18.76,18.76,0,0,1,8.67-2,21.79,21.79,0,0,1,5.86.73,26,26,0,0,1,5.15,2.08,1.82,1.82,0,0,1,1.06,1.72,1.66,1.66,0,0,1-.53,1.2,1.91,1.91,0,0,1-1.4.52,2,2,0,0,1-.87-.18,23.22,23.22,0,0,0-4.15-1.58,17.92,17.92,0,0,0-4.69-.55,14.46,14.46,0,0,0-7.07,1.61,10.58,10.58,0,0,0-4.4,4.39,14.28,14.28,0,0,0,0,12.62,10.58,10.58,0,0,0,4.4,4.39,14.46,14.46,0,0,0,7.07,1.61,18.38,18.38,0,0,0,4.69-.54,23.28,23.28,0,0,0,4.15-1.59,2,2,0,0,1,.87-.18,2,2,0,0,1,1.4.5,1.62,1.62,0,0,1,.53,1.22,1.81,1.81,0,0,1-1.06,1.72,25.38,25.38,0,0,1-5.15,2.08,21.4,21.4,0,0,1-5.86.73,18.76,18.76,0,0,1-8.67-2" transform="translate(-11.5 -7.86)"/><path class="cls-7" d="M265.83,51.43q4.94,0,6.93-1.77a5.8,5.8,0,0,0,0-8.78q-2-1.76-6.93-1.76h-8.35V51.43Zm-12.12,15a1.89,1.89,0,0,1-.62-1.45V37.31a2,2,0,0,1,.62-1.47,2.13,2.13,0,0,1,1.55-.61h11a16.66,16.66,0,0,1,7.48,1.45,9.25,9.25,0,0,1,4.16,3.71,10.17,10.17,0,0,1,0,9.77,9.25,9.25,0,0,1-4.16,3.71,16.66,16.66,0,0,1-7.48,1.45h-8.79V65a1.88,1.88,0,0,1-.65,1.45,2.29,2.29,0,0,1-1.57.59,2.2,2.2,0,0,1-1.55-.59" transform="translate(-11.5 -7.86)"/><path class="cls-7" d="M311.23,50.61a12.31,12.31,0,0,0,6.59-1.53,4.87,4.87,0,0,0,2.44-4.35,4.74,4.74,0,0,0-2.1-4.16q-2.1-1.45-7.17-1.45h-8.5V50.61ZM298.72,66.45a1.89,1.89,0,0,1-.63-1.45V37.31a2,2,0,0,1,.63-1.47,2.12,2.12,0,0,1,1.55-.61h11.25q6.57,0,9.85,2.53a8,8,0,0,1,3.28,6.65,8.33,8.33,0,0,1-1.61,5,9.06,9.06,0,0,1-4.71,3.24,6.48,6.48,0,0,1,4.75,4,16.57,16.57,0,0,1,1.28,6.26V65a1.92,1.92,0,0,1-.62,1.45,2.2,2.2,0,0,1-1.55.59,2.26,2.26,0,0,1-1.62-.57A1.91,1.91,0,0,1,320,65V63.65a19,19,0,0,0-.44-4.19A6.66,6.66,0,0,0,317.46,56a7.15,7.15,0,0,0-5-1.51h-10V65a1.86,1.86,0,0,1-.66,1.45,2.24,2.24,0,0,1-1.56.59,2.19,2.19,0,0,1-1.55-.59" transform="translate(-11.5 -7.86)"/><path class="cls-7" d="M350.1,61.25l-10.77-9.46a9.55,9.55,0,0,0-2.8,2.58,6.13,6.13,0,0,0-1.16,3.71,4.92,4.92,0,0,0,2.1,4.09,8.24,8.24,0,0,0,5.19,1.61,12,12,0,0,0,7.44-2.53m-13.76,4.68a8.68,8.68,0,0,1-5.12-8,8.33,8.33,0,0,1,1.71-5.27,13.86,13.86,0,0,1,3.75-3.41,14.66,14.66,0,0,1-2.2-3.13A7.69,7.69,0,0,1,338,35.84a10.29,10.29,0,0,1,4.8-1.06,12,12,0,0,1,6.42,2,1.78,1.78,0,0,1,.61.56,1.43,1.43,0,0,1,.26.79,1.49,1.49,0,0,1-.48,1.11,1.64,1.64,0,0,1-1.21.48,2.13,2.13,0,0,1-.87-.23A10,10,0,0,0,343,38.3a5.45,5.45,0,0,0-3.79,1.25,3.84,3.84,0,0,0-1.37,2.92,5.44,5.44,0,0,0,.46,2.31,7,7,0,0,0,1.37,1.94q.92,1,3,2.76l10.09,8.92a19.41,19.41,0,0,0,1.59-2.76,1.91,1.91,0,0,1,.75-.82,2.12,2.12,0,0,1,1.14-.31,2.08,2.08,0,0,1,1.45.52,1.71,1.71,0,0,1,.57,1.33,2,2,0,0,1-.24.91A22.88,22.88,0,0,1,355.66,61l3.23,2.89a2.58,2.58,0,0,1,.58.64,1.52,1.52,0,0,1,.19.81,1.78,1.78,0,0,1-.53,1.31,1.94,1.94,0,0,1-1.45.55,2.19,2.19,0,0,1-1.49-.55L353,63.74a17.52,17.52,0,0,1-4.59,2.58,16.45,16.45,0,0,1-12-.39" transform="translate(-11.5 -7.86)"/><path class="cls-7" d="M368.45,66.45a1.89,1.89,0,0,1-.63-1.45V37.08a2,2,0,0,1,.63-1.47A2.13,2.13,0,0,1,370,35a2.21,2.21,0,0,1,1.57.61,2,2,0,0,1,.65,1.47V65a1.88,1.88,0,0,1-.65,1.45A2.29,2.29,0,0,1,370,67a2.2,2.2,0,0,1-1.55-.59" transform="translate(-11.5 -7.86)"/></g></svg>